<?xml version="1.0" encoding="UTF-8" standalone="no"?><!DOCTYPE svg PUBLIC "-//W3C//DTD SVG 1.1//EN" "http://www.w3.org/Graphics/SVG/1.1/DTD/svg11.dtd"><svg width="100%" height="100%" viewBox="0 0 389 389" version="1.1" xmlns="http://www.w3.org/2000/svg" xmlns:xlink="http://www.w3.org/1999/xlink" xml:space="preserve" xmlns:serif="http://www.serif.com/" style="fill-rule:evenodd;clip-rule:evenodd;stroke-linejoin:round;stroke-miterlimit:2;"><rect id="Artboard4" x="0" y="0" width="389" height="389" style="fill:none;"/><clipPath id="_clip1"><rect x="0" y="0" width="389" height="389"/></clipPath><g clip-path="url(#_clip1)"><path d="M389,66.978l-0,255.044c-0,36.966 -30.012,66.978 -66.978,66.978l-255.044,-0c-36.966,-0 -66.978,-30.012 -66.978,-66.978l-0,-255.044c-0,-36.966 30.012,-66.978 66.978,-66.978l255.044,-0c36.966,-0 66.978,30.012 66.978,66.978Z" style="fill:url(#_Linear2);"/><path d="M91.161,149.885c-0.01,-6.579 3.399,-12.985 9.502,-16.508c-0,0 84.325,-48.672 84.339,-48.68c2.996,-1.729 6.268,-2.548 9.498,-2.544c3.229,-0.004 6.502,0.815 9.498,2.544c0.014,0.008 84.339,48.68 84.339,48.68c9.082,5.243 12.2,16.872 6.957,25.954c-5.242,9.082 -16.871,12.2 -25.953,6.958c-0,-0 -51.478,-42.284 -74.841,-43.198c-23.363,-0.914 -54.449,18.849 -65.339,37.713c-10.89,18.864 -10.89,56.606 -0,75.47c10.89,18.864 46.727,35.885 65.339,37.714c16.59,1.63 47.914,-16.915 46.331,-26.742c-1.583,-9.828 -55.829,-32.225 -55.829,-32.225c-9.082,-5.242 -12.2,-16.871 -6.958,-25.954c5.242,-9.082 16.872,-12.199 25.954,-6.957l84.339,48.68c1.424,0.819 2.751,1.829 3.939,3.018c1.189,1.188 2.199,2.515 3.019,3.939c1.729,2.996 2.548,6.269 2.544,9.499c0.004,3.229 -0.815,6.502 -2.544,9.498c-0.82,1.424 -1.83,2.751 -3.019,3.939c-1.188,1.189 -2.515,2.199 -3.939,3.018c0,0 -84.325,48.672 -84.339,48.68c-2.996,1.729 -6.269,2.549 -9.498,2.545c-3.23,0.004 -6.502,-0.816 -9.498,-2.545c-0.014,-0.008 -84.298,-48.656 -84.298,-48.656c-0.014,-0.008 -0.028,-0.016 -0.041,-0.024c-2.997,-1.73 -5.344,-4.155 -6.956,-6.954c-1.619,-2.796 -2.546,-6.041 -2.546,-9.501c-0,-0.016 -0,-97.361 -0,-97.361Z" style="fill:#fff;"/></g><defs><linearGradient id="_Linear2" x1="0" y1="0" x2="1" y2="0" gradientUnits="userSpaceOnUse" gradientTransform="matrix(1.07157e-14,175,-175,1.07157e-14,194.5,-33.5067)"><stop offset="0" style="stop-color:#393939;stop-opacity:1"/><stop offset="1" style="stop-color:#0f0f0f;stop-opacity:1"/></linearGradient></defs></svg>