<svg xmlns="http://www.w3.org/2000/svg" width="100%" height="100%" viewBox="0 0 389 389" fill-rule="evenodd" stroke-linejoin="round" stroke-miterlimit="2" xmlns:v="https://vecta.io/nano"><clipPath id="A"><path d="M0 0h389v389H0z"/></clipPath><g clip-path="url(#A)"><path d="M389 66.978v255.044C389 358.988 358.988 389 322.022 389H66.978C30.012 389 0 358.988 0 322.022V66.978C0 30.012 30.012 0 66.978 0h255.044C358.988 0 389 30.012 389 66.978z" fill="url(#B)"/><path d="M91.161 149.885c-.01-6.579 3.399-12.985 9.502-16.508l84.339-48.68a18.9 18.9 0 0 1 9.498-2.544c3.229-.004 6.502.815 9.498 2.544l84.339 48.68c9.082 5.243 12.2 16.872 6.957 25.954s-16.871 12.2-25.953 6.958c0 0-51.478-42.284-74.841-43.198s-54.449 18.849-65.339 37.713-10.89 56.606 0 75.47 46.727 35.885 65.339 37.714c16.59 1.63 47.914-16.915 46.331-26.742s-55.829-32.225-55.829-32.225c-9.082-5.242-12.2-16.871-6.958-25.954s16.872-12.199 25.954-6.957l84.339 48.68c1.424.819 2.751 1.829 3.939 3.018s2.199 2.515 3.019 3.939c1.729 2.996 2.548 6.269 2.544 9.499.004 3.229-.815 6.502-2.544 9.498-.82 1.424-1.83 2.751-3.019 3.939s-2.515 2.199-3.939 3.018l-84.339 48.68c-2.996 1.729-6.269 2.549-9.498 2.545a18.9 18.9 0 0 1-9.498-2.545l-84.298-48.656-.041-.024c-2.997-1.73-5.344-4.155-6.956-6.954a18.9 18.9 0 0 1-2.546-9.501v-97.361z" fill="#fff"/></g><defs><linearGradient id="B" x1="194.5" y1="-33.507" x2="194.5" y2="141.493" gradientUnits="userSpaceOnUse"><stop offset="0" stop-color="#393939"/><stop offset="1" stop-color="#0f0f0f"/></linearGradient></defs></svg>